<?xml version="1.0" encoding="UTF-8"?><svg id="Layer_1" xmlns="http://www.w3.org/2000/svg" viewBox="0 0 318.73 49.82"><defs><style>.cls-1{fill:#dbdbdb;}.cls-2{fill:#53721c;}</style></defs><path class="cls-1" d="m28.95,28.39h-5.99v-5.7h12.99v11.94c-1.74,1.16-3.71,2.04-5.91,2.63-2.2.59-4.52.89-6.97.89-5.13,0-9.1-1.17-11.92-3.52-2.82-2.35-4.23-5.66-4.23-9.94,0-2.78.6-5.21,1.8-7.27,1.2-2.07,2.94-3.66,5.24-4.79,2.3-1.12,5.04-1.69,8.24-1.69,3.6,0,6.55.73,8.85,2.18,2.3,1.45,3.78,3.51,4.46,6.17l-7.62.76c-.44-1.11-1.12-1.91-2.05-2.39-.93-.48-2.21-.73-3.83-.73-2.39,0-4.21.65-5.46,1.94-1.25,1.29-1.87,3.17-1.87,5.64,0,2.59.68,4.51,2.03,5.77,1.35,1.26,3.45,1.89,6.28,1.89,2.27,0,4.26-.33,5.95-.98v-2.79Z"/><path class="cls-1" d="m39.76,37.49v-19.05h7.04v2.68c1.77-2.01,3.99-3.01,6.68-3.01.75,0,1.5.07,2.25.22l-.8,5.55c-.82-.15-1.61-.22-2.36-.22-1.77,0-3.17.41-4.21,1.23-.46.36-.81.79-1.05,1.27-.24.48-.36.98-.36,1.49v9.83h-7.18Z"/><path class="cls-1" d="m63.09,29.66c.12,1.19.59,2.09,1.4,2.7.81.62,1.93.93,3.36.93,2.3,0,3.7-.64,4.21-1.92h6.64c-.99,4.48-4.67,6.71-11.03,6.71-3.6,0-6.4-.86-8.38-2.58-1.98-1.72-2.98-4.15-2.98-7.29,0-2.01.46-3.79,1.38-5.35.92-1.56,2.25-2.78,3.99-3.66,1.74-.88,3.8-1.32,6.17-1.32,3.51,0,6.23.86,8.16,2.59s2.9,4.18,2.9,7.35v1.85h-15.82Zm9.14-3.81c-.12-2.18-1.62-3.27-4.5-3.27-1.19,0-2.2.3-3.03.91-.83.61-1.32,1.39-1.47,2.36h9Z"/><path class="cls-1" d="m88.16,29.66c.12,1.19.59,2.09,1.4,2.7.81.62,1.93.93,3.36.93,2.3,0,3.7-.64,4.21-1.92h6.64c-.99,4.48-4.67,6.71-11.03,6.71-3.6,0-6.4-.86-8.38-2.58-1.98-1.72-2.98-4.15-2.98-7.29,0-2.01.46-3.79,1.38-5.35.92-1.56,2.25-2.78,3.99-3.66,1.74-.88,3.8-1.32,6.17-1.32,3.51,0,6.23.86,8.16,2.59s2.9,4.18,2.9,7.35v1.85h-15.82Zm9.14-3.81c-.12-2.18-1.62-3.27-4.5-3.27-1.19,0-2.2.3-3.03.91-.83.61-1.32,1.39-1.47,2.36h9Z"/><path class="cls-1" d="m122.3,37.49v-10.99c0-1.11-.26-1.92-.78-2.43-.52-.51-1.34-.76-2.45-.76-.6,0-1.2.11-1.78.34s-1.09.55-1.52.96c-.82.75-1.23,1.62-1.23,2.61v10.27h-7.18v-19.05h7.04v2.65c2.01-2.15,4.5-3.23,7.47-3.23,2.39,0,4.26.64,5.6,1.9,1.34,1.27,2.01,3.05,2.01,5.35v12.37h-7.18Z"/><path class="cls-1" d="m131.37,22.51l1.52-10.92h7l-2.97,10.92h-5.55Z"/><path class="cls-1" d="m155.61,24.25c-.22-.68-.64-1.17-1.27-1.49-.63-.31-1.5-.47-2.61-.47s-1.94.13-2.54.38-.91.62-.91,1.11c0,.44.24.77.71,1.02.47.24,1.28.44,2.41.58l2.61.36c2.27.31,4.02.71,5.24,1.2,1.22.48,2.09,1.11,2.59,1.87.51.76.76,1.76.76,2.99,0,2.06-.88,3.62-2.65,4.68-1.77,1.06-4.35,1.6-7.76,1.6s-6.25-.56-8.09-1.67c-1.84-1.11-2.88-2.78-3.12-5.01h6.71c.44,1.4,1.9,2.1,4.39,2.1,1.16,0,2.04-.13,2.65-.38s.91-.63.91-1.14c0-.44-.23-.76-.69-.98s-1.27-.4-2.43-.54l-2.4-.33c-2.13-.29-3.82-.7-5.06-1.22-1.25-.52-2.15-1.18-2.7-2-.56-.81-.83-1.82-.83-3.03,0-1.91.89-3.39,2.68-4.44,1.79-1.05,4.29-1.58,7.51-1.58s5.53.46,7.22,1.38c1.69.92,2.78,2.38,3.27,4.39l-6.6.62Z"/><path d="m194.13,37.49l-5.19-8.78h-5.95v8.78h-7.18V11.59h13.24c7.72,0,11.57,2.87,11.57,8.6,0,1.72-.37,3.15-1.12,4.3-.75,1.15-1.9,2.07-3.45,2.78l6.35,10.23h-8.27Zm-5.55-14.29c1.64,0,2.84-.24,3.59-.73s1.13-1.27,1.13-2.36-.36-1.83-1.07-2.3-1.9-.71-3.57-.71h-5.66v6.09h5.59Z"/><path d="m219.17,37.49v-2.36c-1.01,1.02-2.12,1.75-3.32,2.21-1.2.46-2.58.69-4.15.69-2.56,0-4.54-.5-5.91-1.51-1.38-1-2.07-2.45-2.07-4.34,0-2.06.89-3.6,2.67-4.64,1.78-1.04,4.55-1.61,8.33-1.71l4.21-.11v-.83c0-.77-.3-1.37-.91-1.8s-1.46-.64-2.58-.64-2.03.16-2.74.47c-.71.31-1.16.75-1.32,1.31l-6.42-.47c.46-2.01,1.57-3.49,3.32-4.46,1.75-.97,4.19-1.45,7.31-1.45,6.65,0,9.98,2.58,9.98,7.73v11.9h-6.39Zm-.25-8.09l-3.77.11c-1.69.05-2.9.24-3.63.56-.73.33-1.09.87-1.09,1.61,0,1.16,1.11,1.74,3.34,1.74.82,0,1.58-.1,2.27-.29.69-.19,1.25-.47,1.69-.83.8-.68,1.2-1.45,1.2-2.32v-.58Z"/><path d="m228.85,37.49v-4.17l10.7-9.8h-10.45v-5.08h19.74v4.17l-10.7,9.8h11.36l-.62,5.08h-20.03Z"/><path d="m274.89,27.92c0,3.14-1.06,5.62-3.19,7.44s-5.04,2.72-8.74,2.72-6.57-.88-8.6-2.63c-2.03-1.75-3.05-4.21-3.05-7.38s1.06-5.66,3.19-7.47c2.13-1.81,5.04-2.72,8.74-2.72s6.57.88,8.6,2.63c2.03,1.75,3.05,4.23,3.05,7.42Zm-7.26.04c0-1.55-.39-2.73-1.16-3.56-.77-.82-1.9-1.23-3.37-1.23s-2.57.41-3.36,1.23-1.18,2.02-1.18,3.59.39,2.73,1.16,3.56c.77.82,1.9,1.23,3.37,1.23s2.57-.41,3.36-1.23c.79-.82,1.18-2.02,1.18-3.59Z"/><path d="m278.99,37.49v-19.05h7.04v2.68c1.77-2.01,3.99-3.01,6.68-3.01.75,0,1.5.07,2.25.22l-.8,5.55c-.82-.15-1.61-.22-2.36-.22-1.77,0-3.17.41-4.21,1.23-.46.36-.81.79-1.05,1.27-.24.48-.36.98-.36,1.49v9.83h-7.18Z"/><path class="cls-2" d="m54.52,8.16c-.25.6-.4,1.5-.46,2.68-.02.44-.04,1.09-.05,1.95s-.03,1.51-.05,1.95c-.07,1.46-.31,3.63-.7,6.52-.4,2.88-.63,5.05-.7,6.51-.05,1.11-.06,2.78,0,5.01.05,2.23.05,3.91,0,5.03-.03.6-.26,1.09-.68,1.48-.42.39-.93.57-1.53.54-.59-.03-1.07-.26-1.46-.69-.39-.43-.57-.94-.54-1.54.05-1.13.06-2.8,0-5.03-.05-2.23-.05-3.9,0-5.01.05-1.07.14-2.15.27-3.24-2.5-.08-5.61.14-9.33.67l-9.3,1.35c-.06,1.31-.29,3.18-.67,5.58-.38,2.41-.6,4.27-.67,5.6-.03.6-.26,1.1-.68,1.5-.42.4-.93.58-1.53.55-.6-.03-1.09-.26-1.47-.7-.38-.44-.56-.95-.53-1.55.08-1.55.32-3.86.72-6.92.41-3.06.65-5.37.72-6.92.04-.8.07-2.02.09-3.64.02-1.63.05-2.85.09-3.67.06-1.16.21-2.89.47-5.2.26-2.31.42-4.04.47-5.2.03-.61.26-1.11.68-1.51.42-.39.93-.57,1.53-.54.6.03,1.09.26,1.47.69.38.43.56.95.53,1.56-.06,1.17-.22,2.92-.49,5.24-.27,2.33-.43,4.07-.49,5.24l-.14,5.55,9.49-1.32c3.79-.52,6.97-.73,9.55-.63.26-2.08.5-5.23.7-9.44.05-1.11.29-2.23.71-3.35.56-1.54,1.28-2.29,2.15-2.25.56.03,1.04.25,1.46.68s.61.94.58,1.56c-.01.22-.09.52-.24.89Z"/><path class="cls-2" d="m74.78,41.56c-.28-.01-.77-.36-1.47-1.04-.63-.63-1.09-1.19-1.39-1.67-1.44.69-2.7,1.2-3.79,1.54s-1.99.49-2.7.45c-3.42-.17-5.87-1.25-7.34-3.26-1.39-1.88-1.99-4.7-1.81-8.44.17-3.54,1.54-6.5,4.09-8.9,2.56-2.4,5.52-3.51,8.9-3.35,1.27.06,2.68.46,4.23,1.2,1.95.92,2.89,1.95,2.84,3.11-.02.4-.18.74-.49,1.03-.17.55-.33,1.46-.47,2.72-.14,1.27-.27,2.9-.38,4.88-.1,1.81-.05,3.25.16,4.32.12.65.51,1.96,1.19,3.93.09.27.24.66.45,1.19l.11.38c-.03.58-.26,1.06-.69,1.42-.43.36-.91.53-1.45.5Zm-3.82-15.46c.03-.63.1-1.31.22-2.04.12-.73.28-1.51.48-2.34-.53-.3-.98-.53-1.36-.68-.38-.15-.69-.23-.92-.24-2.27-.11-4.27.72-6,2.49-1.73,1.77-2.66,3.86-2.78,6.27-.12,2.4.22,4.22,1.01,5.46.79,1.24,2.03,1.9,3.73,1.98,1.4.07,2.61-.13,3.61-.59.54-.25,1.3-.77,2.3-1.56-.28-3.9-.37-6.81-.28-8.74Z"/><path class="cls-2" d="m96.55,42.73c-1.26-.06-1.93-.78-2.03-2.16l-.38-4.83c-.12-1.72-.15-3.33-.07-4.82.02-.41.08-1.1.18-2.08s.16-1.67.18-2.08c.15-3.16-.35-4.77-1.52-4.82-1.64-.08-3.25.82-4.83,2.69-1.43,1.7-2.59,3.89-3.48,6.56-.06.57-.16,1.28-.3,2.14-.12.73-.2,1.43-.24,2.12-.02.44,0,1.1.04,1.98s.06,1.54.04,1.98c-.03.66-.26,1.18-.68,1.57-.42.39-.95.57-1.58.54-.64-.03-1.15-.26-1.53-.69-.38-.43-.55-.97-.51-1.63.02-.44,0-1.1-.05-1.98-.05-.88-.07-1.54-.05-1.98.07-1.5.28-3.59.62-6.24.34-2.66.55-4.74.62-6.24.02-.47.03-1.16.02-2.09,0-.92,0-1.62.02-2.09.03-.63.26-1.13.7-1.52.44-.38.96-.56,1.58-.53,1.34.07,2.04,1.05,2.08,2.96l-.06,2.57c2.62-3.15,5.22-4.67,7.8-4.54,2.34.11,3.92,1.22,4.74,3.33.56,1.4.81,3.45.73,6.15l-.11,2.21-.12,2.04c-.06,1.21.02,2.79.24,4.73.22,1.94.3,3.51.24,4.7-.03.64-.26,1.16-.7,1.54-.44.38-.97.56-1.6.53Z"/><path class="cls-2" d="m120.64,43.25c-.8-.04-1.4-.49-1.8-1.36-.69-1.51-1.75-3.32-3.19-5.41l-3.62-5.47c-.88.63-2.24,1.51-4.08,2.64-.27,2.26-.46,4.46-.56,6.61-.03.66-.26,1.18-.68,1.57s-.95.57-1.58.54c-1.48-.07-2.17-1.1-2.07-3.09.06-1.21.23-3.03.52-5.44.29-2.41.46-4.22.52-5.44.11-2.22.27-4.76.47-7.61.21-2.85.36-5.38.47-7.57.03-.66.04-1.43.01-2.33-.02-.89-.02-1.67.01-2.33.03-.66.26-1.18.68-1.57.42-.39.95-.57,1.58-.54.63.03,1.13.26,1.52.69.38.43.56.97.53,1.63-.03.67-.04,1.47,0,2.38.03.92.03,1.71,0,2.38l-.5,7.05c-.2,2.54-.34,5.08-.44,7.63,2.06-1.42,4.06-3,5.99-4.72l5.07-4.74c.51-.47,1.04-.7,1.59-.67.57.03,1.07.28,1.51.76.44.48.64,1.01.61,1.61-.02.5-.26.98-.71,1.44-1.9,2.02-4.23,4.17-6.97,6.45l4.46,6.75c2.09,3.17,3.11,5.21,3.06,6.13-.03.58-.28,1.08-.76,1.48-.48.4-1.02.59-1.62.56Z"/><path class="cls-2" d="m126.92,18.61c-1.13-.06-1.68-.76-1.66-2.1.01-.53.23-1.57.66-3.13l1.02-3.8c.26-1.14.84-1.7,1.75-1.65.53.03.94.24,1.25.65.31.41.45.89.42,1.43-.03,1.23-.53,3.43-1.49,6.61-.42,1.37-1.07,2.04-1.96,1.99Z"/><path class="cls-2" d="m148.59,26.79c-.8-.04-1.35-.34-1.65-.89-.2-.39-.35-1.19-.46-2.4-1.11.22-2.82.65-5.14,1.29-2.4.82-3.64,1.92-3.72,3.29.43.18.86.32,1.28.41,3.33.76,5.79,1.71,7.38,2.84,2.31,1.65,3.39,3.93,3.25,6.84-.12,2.38-1.23,4.13-3.35,5.24-1.76.91-3.95,1.3-6.56,1.17-1.91-.09-3.73-.5-5.43-1.23-2.21-.93-3.28-2.12-3.21-3.58.03-.58.28-1.08.77-1.5.48-.41,1.01-.61,1.6-.58.45.02,1.02.4,1.7,1.14.33.35,1.11.67,2.33.95.97.22,1.79.35,2.46.38,1.23.06,2.32-.03,3.27-.28,1.38-.36,2.09-1,2.14-1.92.1-1.99-1.23-3.4-3.97-4.24l-2.26-.61c-1.92-.52-3.28-1.08-4.07-1.69-1.14-.88-1.68-2.14-1.6-3.79.15-3.05,1.7-5.16,4.64-6.32.9-.35,2.32-.75,4.28-1.21,1.96-.45,3.36-.85,4.21-1.19.61-.23,1.27-.33,1.97-.3.63.03,1.13.26,1.52.69.38.43.56.97.53,1.63-.02.42.04,1.05.18,1.88.14.83.2,1.45.18,1.88-.03.66-.26,1.18-.68,1.57-.42.39-.95.57-1.58.54Z"/></svg>